<svg width="15" height="9" viewBox="0 0 15 9" fill="none" xmlns="http://www.w3.org/2000/svg">
<path fill-rule="evenodd" clip-rule="evenodd" d="M12.2931 1.293C12.3853 1.19749 12.4957 1.12131 12.6177 1.0689C12.7397 1.01649 12.8709 0.988903 13.0037 0.98775C13.1365 0.986596 13.2681 1.0119 13.391 1.06218C13.5139 1.11246 13.6256 1.18671 13.7195 1.28061C13.8134 1.3745 13.8876 1.48615 13.9379 1.60905C13.9882 1.73194 14.0135 1.86362 14.0123 1.9964C14.0112 2.12918 13.9836 2.2604 13.9312 2.3824C13.8788 2.50441 13.8026 2.61475 13.7071 2.707L7.70707 8.707C7.52484 8.88926 7.27927 8.99412 7.0216 8.99971C6.76392 9.0053 6.51404 8.91119 6.32407 8.737L0.324072 3.237C0.128608 3.05771 0.0123704 2.80812 0.000930667 2.54313C-0.00473371 2.41192 0.0155007 2.28088 0.060479 2.1575C0.105457 2.03411 0.174299 1.92078 0.263072 1.824C0.351846 1.72722 0.458813 1.64886 0.577867 1.59342C0.696921 1.53798 0.825729 1.50652 0.956939 1.50086C1.22193 1.48942 1.48061 1.58371 1.67607 1.763L6.97007 6.616L12.2931 1.293Z" fill="#848895"/>
</svg>
